<mxfile host="app.diagrams.net" modified="2023-07-26T06:13:19.946Z" agent="Mozilla/5.0 (Windows NT 10.0; Win64; x64) AppleWebKit/537.36 (KHTML, like Gecko) Chrome/115.0.0.0 Safari/537.36" version="21.6.5" etag="bcaHrtK4uoe7Cj76NEbj" type="github">
  <diagram name="Page-1" id="poXX-Lm66gUImrB96t5R">
    <mxGraphModel>
      <root>
        <mxCell id="0" />
        <mxCell id="1" parent="0" />
      </root>
    </mxGraphModel>
  </diagram>
</mxfile>
